<?xml version="1.0" encoding="UTF-8" standalone="no"?>
<svg width="335px" height="335px" viewBox="0 0 335 335" version="1.1" xmlns="http://www.w3.org/2000/svg" xmlns:xlink="http://www.w3.org/1999/xlink">
    <!-- Generator: Sketch 39.1 (31720) - http://www.bohemiancoding.com/sketch -->
    <title>path5264</title>
    <desc>Created with Sketch.</desc>
    <defs></defs>
    <g id="Page-1" stroke="none" stroke-width="1" fill="none" fill-rule="evenodd">
        <g id="Group-2" transform="translate(-3.000000, 10.000000)" stroke-width="10" stroke="#FFFFFF">
            <g id="Coptic_cross" transform="translate(13.158470, 0.000000)">
                <g id="svg2">
                    <g id="g9238" transform="translate(0.461543, 0.463275)">
                        <g id="g2236" transform="translate(0.000000, -0.000000)">
                            <path d="M238.08479,193.718608 L273.181474,223.18571 L273.181313,181.352635 C273.828615,179.871063 300.393117,165.383852 314.088708,157.375307 C300.409882,149.366757 273.813011,134.909895 273.165715,133.428323 L273.186124,91.5952483 L238.169759,121.003256 L193.36063,121.003541 L193.362937,76.1975589 L222.776793,41.0373383 L181.019309,41.0577842 C179.540414,40.4093116 165.079381,13.7764386 157.085307,0.056051887 C149.091227,13.7596441 134.660489,40.4046563 133.181594,41.0531289 L91.4241098,41.032683 L120.703537,76.0638478 L120.78354,121.002253 L76.0607699,121.005593 L40.9640797,91.5384911 L40.9642399,133.371566 C40.3169396,134.853138 13.7524362,149.340349 0.0568453421,157.348894 C13.7356721,165.357445 40.3325415,179.814306 40.9798387,181.295878 L40.9594287,223.128953 L75.9757956,193.720945 L120.784929,193.72066 L120.782617,238.526642 L91.3687614,273.686865 L133.12624,273.666419 C134.605146,274.314892 149.066174,300.947762 157.060253,314.66815 C165.054332,300.964557 179.48506,274.319545 180.963966,273.671072 L222.72145,273.691518 L193.442022,238.660353 L193.36303,193.710793 L238.08479,193.718608 Z" id="path5264"></path>
                        </g>
                    </g>
                </g>
            </g>
        </g>
    </g>
</svg>